<svg xmlns="http://www.w3.org/2000/svg" width="33.333" height="25" viewBox="0 0 33.333 25"><g transform="translate(0 38.75)"><g transform="translate(0 -38.75)"><path d="M-11.667-6.346A3.777,3.777,0,0,1-15.37-2.5H-41.3A3.777,3.777,0,0,1-45-6.346V-23.654A3.777,3.777,0,0,1-41.3-27.5H-15.37a3.777,3.777,0,0,1,3.7,3.846Z" transform="translate(45 27.5)" fill="#c60a1d"/><path d="M33.333-17.5H0V-30H33.333Z" transform="translate(0 36.25)" fill="#ffc400"/><g transform="translate(8.125 11.25)"><path d="M0,0V3.125a3.125,3.125,0,0,0,6.25,0V0Z" fill="#ea596e"/></g><path d="M15-21.875h3.125V-25H15Z" transform="translate(-4.015 35.462)" fill="#f4a2b2"/><path d="M14.375-21.875H11.25V-25h3.125Z" transform="translate(-3.011 35.462)" fill="#dd2e44"/><g transform="translate(8.125 7.609)"><path d="M-1.25-.312c0,.864-1.4,1.563-3.125,1.563S-7.5.551-7.5-.312s1.4-1.562,3.125-1.562,3.125.7,3.125,1.563" transform="translate(7.5 1.875)" fill="#ea596e"/></g><g transform="translate(8.125 7.653)"><path d="M-1.25-.156c0-.431-1.4-.781-3.125-.781S-7.5-.587-7.5-.156s1.4.781,3.125.781S-1.25.275-1.25-.156" transform="translate(7.5 0.938)" fill="#ffac33"/></g><path d="M8.75-17.708H9.792V-25H8.75Z" transform="translate(-2.292 35.252)" fill="#99aab5"/><path d="M21.042-17.708H20V-25h1.042Z" transform="translate(-5.238 35.252)" fill="#99aab5"/><path d="M10.625-16.458H7.5V-17.5h3.125Z" transform="translate(-2.008 33.792)" fill="#66757f"/><path d="M21.875-16.458H18.75V-17.5h3.125Z" transform="translate(-5.019 33.792)" fill="#66757f"/><path d="M9.792-25.208H8.75V-26.25H9.792Z" transform="translate(-2.292 35.833)" fill="#66757f"/><path d="M21.042-25.208H20V-26.25h1.042Z" transform="translate(-5.238 35.833)" fill="#66757f"/></g></g></svg>