<svg xmlns="http://www.w3.org/2000/svg" width="33.333" height="25" viewBox="0 0 33.333 25"><g transform="translate(0 38.75)"><g transform="translate(0 -38.75)"><path d="M-.833,0A4.016,4.016,0,0,0-5,3.846V21.154A4.016,4.016,0,0,0-.833,25H6.458V0Z" transform="translate(5)" fill="#006847"/><g transform="translate(21.875)"><path d="M-1.458,0H-8.75V25h7.292a4.016,4.016,0,0,0,4.167-3.846V3.846A4.016,4.016,0,0,0-1.458,0" transform="translate(8.75)" fill="#ce1126"/></g><path d="M13.75-13.75H28.333v-25H13.75Z" transform="translate(-4.375 38.75)" fill="#eee"/><g transform="translate(10.417 12.188)"><path d="M-2.292,0A5.208,5.208,0,0,1-7.5,5.208,5.208,5.208,0,0,1-12.708,0H-13.75A6.25,6.25,0,0,0-7.5,6.25,6.25,6.25,0,0,0-1.25,0Z" transform="translate(13.75)" fill="#a6d388"/></g><g transform="translate(11.601 14.332)"><path d="M-.2-.057A.519.519,0,0,0-.685-.339.51.51,0,0,0-.9-.285a.522.522,0,0,0-.228.7c.095.184.2.365.308.537a0,0,0,0,1,0,0,.022.022,0,0,0,0,.006h0L-.8.973h0A.022.022,0,0,1-.8.98s0,0,0,0A.01.01,0,0,0-.8.987h0l0,.005V1l0,.005V1s0,0,0,0,0,0,0,0l0,0s0,0,0,0,0,0,0,0l0,0,0,.005a0,0,0,0,1,0,0l0,0a.009.009,0,0,0,0,.006v0a.01.01,0,0,0,0,.005,0,0,0,0,0,0,0,.063.063,0,0,0,.007.01,0,0,0,0,0,0,0,.019.019,0,0,0,.005.007h0c.053.08.109.157.168.236a.521.521,0,0,0,.439.208.51.51,0,0,0,.287-.1A.518.518,0,0,0,.258.68,5.308,5.308,0,0,1-.2-.057" transform="translate(1.183 0.339)" fill="#5c913b"/></g><g transform="translate(11.069 11.786)"><path d="M-.218-.281c-.022-.162-.038-.328-.044-.5-.006-.125-.006-.248,0-.371A.521.521,0,0,0-.77-1.684H-.808a.52.52,0,0,0-.5.506c0,.107,0,.216,0,.324a.059.059,0,0,1,0,.014h0a.013.013,0,0,1,0,.006h0v.013h0V-.8h0A.009.009,0,0,0-1.3-.8s0,0,0,0,0,0,0,.006,0,0,0,.006,0,0,0,0,0,0,0,0h0s0,0,0,.006h0s0,0,0,.005v.007h0v.007h0v.014a.011.011,0,0,1,0,0h0a.01.01,0,0,0,0,0,0,0,0,0,0,0,0v0s0,0,0,0V-.7h0v.009s0,0,0,0v0s0,0,0,0h0v0a.147.147,0,0,1,0,.021.023.023,0,0,0,0,.008h0v0h0v0h0c.009.167.026.333.048.5A.519.519,0,0,0-.713.311l.05,0A.52.52,0,0,0-.218-.281" transform="translate(1.308 1.684)" fill="#5c913b"/></g><g transform="translate(15.583 17.222)"><path d="M-.29,0H-.3L-.425.006a5.3,5.3,0,0,1-.74-.022.451.451,0,0,0-.075,0,.523.523,0,0,0-.5.469.521.521,0,0,0,.466.57l.13.011h.057a.007.007,0,0,1,.006,0h.013a.068.068,0,0,0,.015,0c.157.01.317.016.478.013a.139.139,0,0,0,.021,0h.064a0,0,0,0,1,.005,0h.022a0,0,0,0,1,0,0h.112c.044,0,.089-.005.132-.007A.515.515,0,0,0,.258.49.531.531,0,0,0-.29,0" transform="translate(1.738 0.018)" fill="#5c913b"/></g><g transform="translate(13.241 16.305)"><path d="M-.314-.1a5.281,5.281,0,0,1-.754-.428.509.509,0,0,0-.316-.091A.513.513,0,0,0-1.792-.4a.52.52,0,0,0,.134.723h0s0,0,.006,0l.006.006h0l.006,0h0l.006.005h0A6.241,6.241,0,0,0-.752.841.514.514,0,0,0-.512.889a.521.521,0,0,0,.451-.3A.522.522,0,0,0-.314-.1" transform="translate(1.883 0.623)" fill="#5c913b"/></g><g transform="translate(18.067 16.401)"><path d="M-.268,0A.519.519,0,0,0-.527.083a5.356,5.356,0,0,1-.765.4.519.519,0,0,0-.278.682.522.522,0,0,0,.5.318.544.544,0,0,0,.18-.04l.14-.062h0l.006,0s0,0,0,0,0,0,0,0,0,0,0,0,0,0,0,0,0,0,0,0h.007s0,0,0,0a.006.006,0,0,1,.005,0h0l.005,0h0l.005,0h0s0,0,.005,0,0,0,0,0l.005,0h0s0,0,.006,0l.006,0h0l.005,0h0a.009.009,0,0,0,.006,0s0,0,0,0H-.64s0,0,.006,0,0,0,0,0,0,0,0,0h0s0,0,.006,0l.008,0,.006,0h0l.007,0a0,0,0,0,1,0,0l.014-.006.007,0,.015-.008.008,0,.005,0h0a.064.064,0,0,1,.015-.007h0l.006,0h0A.149.149,0,0,0-.5,1.266l.007,0,.015-.008.007,0h0a.01.01,0,0,1,.007,0,.009.009,0,0,1,.005-.005l.008,0,.006,0h0L-.43,1.23h0l.007,0s0,0,0,0l0,0h0l.007,0,.006,0h0l.006,0h0l.007,0h0l.006,0h0l.005,0h0s0,0,0,0a0,0,0,0,0,0,0,.006.006,0,0,0,.005,0h0l.005,0h0l.006,0s0,0,0,0l.006,0s0,0,0,0a.008.008,0,0,1,0,0s0,0,0,0l.006,0s0,0,0,0,0,0,0,0h0l0,0,0,0a.005.005,0,0,1,0,0l0,0s0,0,0,0l0,0h0a.007.007,0,0,1,0,0s0,0,0,0,0,0,0,0,0,0,0,0h0l0,0s0,0,0,0l0,0s0,0,.005,0,0,0,0,0l0,0s0,0,0,0l0,0s0,0,0,0l0,0s0,0,0,0,.006,0,.008,0,0,0,0,0,0,0,0,0l.007,0s0,0,0,0l.007,0h0A.03.03,0,0,1-.192,1.1l.008-.005a.1.1,0,0,1,.021-.011h0c.066-.04.133-.08.2-.122A.521.521,0,0,0,.193.242.523.523,0,0,0-.268,0" transform="translate(1.611 0.001)" fill="#5c913b"/></g><g transform="translate(21.141 11.962)"><path d="M-.121,0H-.145a.521.521,0,0,0-.5.519,5.1,5.1,0,0,1-.075.864.521.521,0,0,0,.425.6.565.565,0,0,0,.109.008.523.523,0,0,0,.493-.434V1.551a0,0,0,0,0,0,0s0,0,0,0,0,0,0,0h0s0,0,0,0v0s0,0,0,0v0h0v0h0a0,0,0,0,0,0,0h0V1.517c.022-.134.041-.27.054-.406a0,0,0,0,1,0,0,.005.005,0,0,0,0,0h0a.006.006,0,0,1,0,0V1.09s0,0,0,0h0a.01.01,0,0,1,0,0v0a0,0,0,0,0,0,0v0s0,0,0,0,0,0,0,0h0v0s0,0,0,0V1.055a.042.042,0,0,0,0-.011h0s0,0,0,0h0C.388.869.4.7.4.523A.522.522,0,0,0-.121,0" transform="translate(0.727)" fill="#5c913b"/></g><g transform="translate(20.082 14.485)"><path d="M-.261-.013A.531.531,0,0,0-.535-.078.521.521,0,0,0-.969.191a5.036,5.036,0,0,1-.482.722.522.522,0,0,0,.084.731.514.514,0,0,0,.347.113.521.521,0,0,0,.385-.2q.181-.23.344-.474a.13.13,0,0,1,.01-.021h0l0-.006h0s0,0,0-.007a.007.007,0,0,0,0-.005h0a.022.022,0,0,1,0-.006h0a.011.011,0,0,0,0-.007s0,0,0,0,0,0,0-.006h0s0,0,0-.005,0,0,0,0l0-.006s0,0,0,0,0,0,0,0l0,0s0,0,0-.005h0s0,0,0-.006a0,0,0,0,0,0,0s0,0,0,0a0,0,0,0,1,0,0s0,0,0-.005,0,0,0,0l0,0s0,0,0,0v0h0l0-.005s0,0,0,0,0,0,0-.006,0,0,0,0,0,0,0,0,0,0,0,0,0,0,0,0a0,0,0,0,1,0,0s0,0,0-.005,0,0,0,0,0,0,0,0a0,0,0,0,1,0,0s0,0,0,0,0,0,0,0,0,0,0,0,0,0,0,0l0,0s0,0,0,0,0,0,0,0l0,0s0,0,0,0v0l0-.005v0a0,0,0,0,0,0,0s0,0,0,0l0,0a.011.011,0,0,0,0-.005s0,0,0,0v0a.014.014,0,0,1,0-.005s0,0,0,0,0,0,0,0l0,0a.008.008,0,0,1,0,0s0,0,0,0,0,0,0,0,0,0,0,0,0,0,0-.005l0,0s0,0,0-.006h0a.008.008,0,0,1,0,0l0,0A.008.008,0,0,1-.118.8s0,0,0,0,0,0,0-.006,0,0,0,0l0,0s0,0,0,0,0,0,0-.005,0,0,0,0l0-.006,0,0s0,0,0-.006h0s0,0,.005-.005,0,0,0-.006h0l0-.006s0,0,0,0A.54.54,0,0,1-.057.7a.522.522,0,0,0-.2-.709" transform="translate(1.563 0.078)" fill="#5c913b"/></g><g transform="translate(13.542 14.323)"><path d="M-1.25-.208c0,.576-1.4,1.042-3.125,1.042S-7.5.368-7.5-.208-6.1-1.25-4.375-1.25-1.25-.784-1.25-.208" transform="translate(7.5 1.25)" fill="#55acee"/></g><g transform="translate(15.562 14.323)"><path d="M-.625-.208c0,.576-.7,1.042-1.562,1.042S-3.75.368-3.75-.208s.7-1.042,1.563-1.042S-.625-.784-.625-.208" transform="translate(3.75 1.25)" fill="#ffcc4d"/></g><g transform="translate(13.021 11.849)"><path d="M-.666-.455a.492.492,0,0,1-.068,0,7.271,7.271,0,0,1-1.1-.23.521.521,0,0,1-.351-.648l.006-.02-.011.024a.522.522,0,0,1-.709.2,4.3,4.3,0,0,1-.945-.709.521.521,0,0,1,0-.736.521.521,0,0,1,.736,0,3.245,3.245,0,0,0,.717.536.522.522,0,0,1,.24.622.521.521,0,0,1,.615-.267A6.076,6.076,0,0,0-.6-1.493.522.522,0,0,1-.15-.908a.522.522,0,0,1-.516.453M.813,1.2A.521.521,0,0,1,.355.431,7.134,7.134,0,0,1,.878-.4C.734-.391.584-.389.431-.389A.546.546,0,0,1-.119-.91a.5.5,0,0,1,.492-.521l.084,0c.308,0,.625-.019.908-.046a.517.517,0,0,1,.427.163l.045-.032a2.531,2.531,0,0,1,.293-.168.492.492,0,0,1,.22-.1l.038-.007a1.274,1.274,0,0,1,.388-.073.521.521,0,0,1,.419.213.52.52,0,0,1,.078.462c-.085.277-.275.34-.61.406a1.356,1.356,0,0,0-.248.132.525.525,0,0,1-.624-.035.521.521,0,0,1,0,.641,5.863,5.863,0,0,0-.517.8A.519.519,0,0,1,.813,1.2" transform="translate(3.997 2.732)" fill="#5c913b"/></g><g transform="translate(11.016 5.856)"><path d="M-.659-1.27a1.845,1.845,0,0,1-1.366-.582,3.1,3.1,0,0,1-.8-2.055c.012-.165-.149-.3-.307-.34a.256.256,0,0,0-.325.122A.261.261,0,0,1-3.8-4a.261.261,0,0,1-.127-.346A.763.763,0,0,1-3-4.751a.882.882,0,0,1,.7.884,2.6,2.6,0,0,0,.677,1.678,1.321,1.321,0,0,0,.912.4.576.576,0,0,0,.361-.062,5.419,5.419,0,0,0-1.159-.717A.661.661,0,0,1-1.9-3.063c-.071-.474.417-.954.887-1.417A4.543,4.543,0,0,0-.6-4.912a.263.263,0,0,0,.063-.267A1.067,1.067,0,0,0-1.3-5.649a.924.924,0,0,1-.7-.5,1.524,1.524,0,0,1,.244-1.339.261.261,0,0,1,.355-.1.261.261,0,0,1,.1.354c-.3.533-.268.775-.225.872a.443.443,0,0,0,.334.2,1.539,1.539,0,0,1,1.132.8A.781.781,0,0,1-.184-4.6a5.317,5.317,0,0,1-.459.491c-.27.265-.77.757-.739.97.006.043.065.081.111.106.782.411,1.3.707,1.408,1.071a.475.475,0,0,1-.044.374.735.735,0,0,1-.609.311q-.069.006-.144.006" transform="translate(3.951 7.62)" fill="#5c913b"/></g><g transform="translate(17.53 11.458)"><path d="M-.208-.208C-.208.368-.442.833-.729.833S-1.25.368-1.25-.208s.233-1.042.521-1.042.521.467.521,1.042" transform="translate(1.25 1.25)" fill="#ffcc4d"/></g><g transform="translate(14.501 11.179)"><path d="M-.321-.109c0,.3-.359.543-.8.543s-.8-.243-.8-.543.36-.543.8-.543.8.243.8.543" transform="translate(1.927 0.651)" fill="#ffcc4d"/></g><g transform="translate(13.523 7.008)"><path d="M-.3-.053c.052.221-.236.479-.645.576s-.781,0-.833-.225.235-.48.644-.577.781,0,.834.226" transform="translate(1.781 0.315)" fill="#ffcc4d"/></g><g transform="translate(13.727 5.631)"><path d="M-1.5-1.438c.094.073.253-.759.229-1.019a3.41,3.41,0,0,1,.086-.963,3.612,3.612,0,0,0-.034-1.39c.087-.008.192-.035.205-.143-.4.15-.5-.851-.887-1.425A4.7,4.7,0,0,0-3.232-7.638a1.019,1.019,0,0,1,.169-.281c-.6.3-1.532-.786-2.911-.705-.309.03-.455.049-.535.239-.257.021-.519.079-.519.418a.242.242,0,0,0,.239.23c.225.066.408.015.561.329l.041.325a1.311,1.311,0,0,0-.312-.3l.068-.139a.478.478,0,0,0-.289-.011,1.51,1.51,0,0,0-.722-.137l-.062-.26c-.056.159-.182.151-.2.3-.035-.109-.082-.244-.117-.351-.114.154-.079.32-.121.481A.1.1,0,0,1-8.1-7.561a2.063,2.063,0,0,1-.027-.29.965.965,0,0,0-.211.457l-.086-.272c0,.32-.272.511-.533.736-.073.135.012.136.018.206l.137.069.247-.018c.04.051.007.055.114.089.288.079.647-.265.927.277-.128.108-.258.361-.218.409.051,0-.1.073.106.006a1.859,1.859,0,0,0-.368.508c-.025.06.089-.007.065.1l.052-.006c-.5.54-.017,1.12-.07,1.431.083.135.093,0,.2-.017a3.766,3.766,0,0,0,.494.919l-.324,0a.827.827,0,0,0,.241.406l-.218.069a1.211,1.211,0,0,0-.368.285c-.072.176.347.218.549.248l-.007.211a1.651,1.651,0,0,0,.68-.081l.079-.06.178.1c.059,0,.152-.237.109-.421.115.136.224.356.339.494l.107-.015c.1.155.232.309.331.465l.108.042A.179.179,0,0,0-5.3-1.362l.05.087.173-.119.122-.024.091.148a.312.312,0,0,0,.107-.258c.054.107.069.1.109.126l.08-.168.432.4.327.019c.118.079.436.128.491,0,.263.113.572-.015.556-.14a1.11,1.11,0,0,0,.614.016c.045-.006.159-.119.051-.2-.8-.556-1.984-1.477-2.441-1.7a2.38,2.38,0,0,0-.257-.92l.107-.181a.954.954,0,0,0,.591.308c.177.141.239.354.416.549l.159.029A2.734,2.734,0,0,0-4.1-4.3a4.137,4.137,0,0,1,.644.478,5.277,5.277,0,0,1,.276.64c.083.053.169.247.157.085a4.178,4.178,0,0,0-.233-.818c.341.269.336.687.439.943.086.129.13.3.168.261l-.1-.787-.058-.289c.251.145.341.7.458,1.359,0,.105.043.221.036.289.053.067.116.251.115.142a9.551,9.551,0,0,0-.074-1.323,1.236,1.236,0,0,1,.031-.348c.092.447.19.931.283,1.377v.328l.136.137c.027-.27.057-.54.084-.808l-.1-.964v-.275c0-.1.089-.079.145.031.014.235.014.421.024.656a7.92,7.92,0,0,1,.089.808,3.8,3.8,0,0,0,.082.933" transform="translate(8.988 8.629)" fill="#c1694f"/></g></g></g></svg>