<svg xmlns="http://www.w3.org/2000/svg" width="33.333" height="25" viewBox="0 0 33.333 25"><g transform="translate(0 38.75)"><g transform="translate(0 -38.75)"><g transform="translate(14.583)"><path d="M-3.634-.417A4.147,4.147,0,0,0-7.223-2.5H-21.806V-.417Z" transform="translate(21.806 2.5)" fill="#b22334"/></g><path d="M0-11.667H33.333V-13.75H0Z" transform="translate(0 32.847)" fill="#b22334"/><path d="M22.5-21.667H41.25V-23.75H22.5Z" transform="translate(-7.917 35.208)" fill="#b22334"/><path d="M22.5-26.667H41.25V-28.75H22.5Z" transform="translate(-7.917 36.389)" fill="#b22334"/><path d="M0-16.667H33.333V-18.75H0Z" transform="translate(0 34.028)" fill="#b22334"/><g transform="translate(0.578 22.917)"><path d="M-1.129-.417H24.693A3.624,3.624,0,0,0,27.87-2.5H-4.306A3.624,3.624,0,0,0-1.129-.417" transform="translate(4.306 2.5)" fill="#b22334"/></g><path d="M22.5-31.667H41.25V-33.75H22.5Z" transform="translate(-7.917 37.569)" fill="#b22334"/><g transform="translate(0.001 20.833)"><path d="M-.022-.141c.016.1.033.194.055.289S.087.354.118.455a4.63,4.63,0,0,0,.308.774s0,0,0,.005H32.734s0,0,0,0a4.686,4.686,0,0,0,.307-.772c.031-.1.062-.206.086-.312s.039-.191.055-.286a4.432,4.432,0,0,0,.064-.708H-.085a4.43,4.43,0,0,0,.063.707" transform="translate(0.085 0.849)" fill="#eee"/></g><path d="M0-14.167H33.333V-16.25H0Z" transform="translate(0 33.438)" fill="#eee"/><g transform="translate(0 13.368)"><path d="M0,0V2.083H33.333V0H0Z" fill="#eee"/></g><path d="M22.5-24.167H41.25V-26.25H22.5Z" transform="translate(-7.917 35.799)" fill="#eee"/><path d="M22.5-29.167H41.25V-31.25H22.5Z" transform="translate(-7.917 36.979)" fill="#eee"/><g transform="translate(0 3.459)"><path d="M0-.141A4.163,4.163,0,0,1,.071-.849,3.952,3.952,0,0,0,0-.141" transform="translate(0 0.849)" fill="#eee"/></g><g transform="translate(0.576 2.083)"><path d="M0,0S0,0,0,.005Z" transform="translate(0.003)" fill="#eee"/></g><g transform="translate(0.133 2.862)"><path d="M0-.062C.026-.168.062-.269.1-.371c-.034.1-.069.2-.1.309" transform="translate(0 0.371)" fill="#eee"/></g><g transform="translate(14.583 2.083)"><path d="M0-.417H18.75a3.87,3.87,0,0,0-.072-.708c-.017-.1-.036-.192-.06-.285s-.062-.211-.1-.315a4.311,4.311,0,0,0-.346-.771.008.008,0,0,0,0,0H0Z" transform="translate(0 2.5)" fill="#eee"/></g><path d="M-3.75,0H-18.333A4.167,4.167,0,0,0-22.5,4.167V14.583H-3.75Z" transform="translate(22.5)" fill="#3c3b6e"/><g transform="translate(2.085 2.083)"><path d="M0-.151.644.316.4,1.073,1.041.605l.644.468L1.438.316l.645-.468h-.8L1.041-.908.8-.151Z" transform="translate(0 0.908)" fill="#fff"/></g><g transform="translate(4.168 3.82)"><path d="M0-.151.644.316.4,1.073,1.041.605l.644.468L1.438.316l.645-.468h-.8L1.041-.908.8-.151Z" transform="translate(0 0.908)" fill="#fff"/></g><g transform="translate(7.354 3.82)"><path d="M0-.151.644.316.4,1.073,1.041.605l.644.468L1.438.316l.645-.468h-.8L1.041-.908.8-.151Z" transform="translate(0 0.908)" fill="#fff"/></g><g transform="translate(11.031 3.82)"><path d="M0-.151.644.316.4,1.073,1.041.605l.644.468L1.438.316l.645-.468h-.8L1.041-.908.8-.151Z" transform="translate(0 0.908)" fill="#fff"/></g><g transform="translate(4.168 7.641)"><path d="M0-.151.644.316.4,1.073,1.041.605l.644.468L1.438.316l.645-.468h-.8L1.041-.908.8-.151Z" transform="translate(0 0.908)" fill="#fff"/></g><g transform="translate(7.354 7.641)"><path d="M0-.151.644.316.4,1.073,1.041.605l.644.468L1.438.316l.645-.468h-.8L1.041-.908.8-.151Z" transform="translate(0 0.908)" fill="#fff"/></g><g transform="translate(11.031 7.641)"><path d="M0-.151.644.316.4,1.073,1.041.605l.644.468L1.438.316l.645-.468h-.8L1.041-.908.8-.151Z" transform="translate(0 0.908)" fill="#fff"/></g><g transform="translate(5.516 2.083)"><path d="M0-.151.644.316.4,1.073,1.041.605l.644.468L1.438.316l.645-.468h-.8L1.041-.908.8-.151Z" transform="translate(0 0.908)" fill="#fff"/></g><g transform="translate(9.192 2.083)"><path d="M0-.151.644.316.4,1.073,1.041.605l.644.468L1.438.316l.645-.468h-.8L1.041-.908.8-.151Z" transform="translate(0 0.908)" fill="#fff"/></g><g transform="translate(12.869 2.083)"><path d="M0-.151.644.316.4,1.073,1.041.605l.644.468L1.438.316l.645-.468h-.8L1.041-.908.8-.151Z" transform="translate(0 0.908)" fill="#fff"/></g><g transform="translate(2.085 5.731)"><path d="M0-.151.644.316.4,1.073,1.041.605l.644.468L1.438.316l.645-.468h-.8L1.041-.908.8-.151Z" transform="translate(0 0.908)" fill="#fff"/></g><g transform="translate(5.516 5.732)"><path d="M-.079-.4.564-.864,1.207-.4.961-1.152,1.6-1.62H.81L.564-2.375.319-1.62H-.476l.643.468Z" transform="translate(0.476 2.375)" fill="#fff"/></g><g transform="translate(9.192 5.731)"><path d="M0-.151.644.316.4,1.073,1.041.605l.644.468L1.438.316l.645-.468h-.8L1.041-.908.8-.151Z" transform="translate(0 0.908)" fill="#fff"/></g><g transform="translate(12.869 5.731)"><path d="M0-.151.644.316.4,1.073,1.041.605l.644.468L1.438.316l.645-.468h-.8L1.041-.908.8-.151Z" transform="translate(0 0.908)" fill="#fff"/></g><g transform="translate(2.085 9.552)"><path d="M0-.151.644.316.4,1.073,1.041.605l.644.468L1.438.316l.645-.468h-.8L1.041-.908.8-.151Z" transform="translate(0 0.908)" fill="#fff"/></g><g transform="translate(5.516 9.553)"><path d="M-.079-.4.564-.864,1.207-.4.961-1.152,1.6-1.62H.81L.564-2.375.319-1.62H-.476l.643.468Z" transform="translate(0.476 2.375)" fill="#fff"/></g><g transform="translate(9.192 9.552)"><path d="M0-.151.644.316.4,1.073,1.041.605l.644.468L1.438.316l.645-.468h-.8L1.041-.908.8-.151Z" transform="translate(0 0.908)" fill="#fff"/></g><g transform="translate(12.869 9.552)"><path d="M0-.151.644.316.4,1.073,1.041.605l.644.468L1.438.316l.645-.468h-.8L1.041-.908.8-.151Z" transform="translate(0 0.908)" fill="#fff"/></g></g></g></svg>